<svg t="1620987406207" class="icon" viewBox="0 0 1024 1024" version="1.1" xmlns="http://www.w3.org/2000/svg" p-id="15492" width="128" height="128"><path d="M512 0C230.4 0 0 230.4 0 512c0 64 12.8 125.44 33.28 181.76l235.52-215.04c15.36-15.36 40.96-15.36 56.32 0l140.8 128 240.64-240.64H640c-23.04 0-43.52-17.92-43.52-43.52 0-23.04 17.92-43.52 43.52-43.52h171.52c23.04 0 43.52 17.92 43.52 43.52v171.52c0 23.04-17.92 43.52-43.52 43.52-23.04 0-43.52-17.92-43.52-43.52v-66.56L499.2 698.88c-15.36 15.36-40.96 17.92-58.88 2.56l-140.8-130.56-225.28 204.8C161.28 924.16 325.12 1024 512 1024c281.6 0 512-230.4 512-512S793.6 0 512 0z" fill="#ffffff" p-id="15493" data-spm-anchor-id="a313x.7781069.0.i19" class="selected"></path></svg>
